<?xml version="1.0" standalone="no"?>
<!DOCTYPE svg PUBLIC "-//W3C//DTD SVG 20010904//EN"
 "http://www.w3.org/TR/2001/REC-SVG-20010904/DTD/svg10.dtd">
<svg version="1.0" xmlns="http://www.w3.org/2000/svg"
 width="266.000000pt" height="266.000000pt" viewBox="0 0 266.000000 266.000000"
 preserveAspectRatio="xMidYMid meet">

<g transform="translate(0.000000,266.000000) scale(0.100000,-0.100000)"
fill="#000000" stroke="none">
<path d="M1213 2503 c-13 -2 -23 -9 -23 -14 0 -6 -5 -7 -11 -3 -11 7 -130 -15
-139 -26 -6 -8 -106 -50 -198 -85 -103 -38 -187 -101 -347 -260 -153 -153
-276 -367 -306 -534 -5 -29 -14 -61 -18 -70 -12 -22 -2 -73 17 -88 14 -11 20
-35 41 -168 8 -47 9 -45 10 36 1 88 28 218 62 297 23 53 35 50 19 -5 -17 -61
-24 -307 -11 -407 22 -160 86 -324 176 -451 42 -59 122 -142 130 -137 19 10
56 -7 151 -69 141 -91 191 -117 275 -138 38 -10 67 -20 64 -23 -5 -5 170 -21
235 -22 19 0 87 3 150 6 113 5 114 5 70 -10 -78 -27 -15 -32 77 -6 46 12 83
19 83 14 0 -11 -83 -41 -177 -65 -40 -11 -73 -22 -73 -26 0 -4 16 -10 36 -13
48 -9 39 -28 -20 -43 -80 -20 -72 -32 9 -13 23 5 42 5 45 0 7 -11 87 8 115 27
11 7 30 13 43 13 13 0 35 6 50 14 15 7 47 17 71 21 24 4 49 11 55 16 6 5 47
32 91 60 109 70 162 116 215 188 49 66 83 92 53 40 -10 -17 -65 -77 -123 -132
-100 -96 -90 -95 33 3 31 25 59 55 63 68 3 12 11 22 18 22 15 1 68 72 121 165
95 168 148 419 149 715 0 170 -13 214 -83 270 -22 18 -41 39 -41 45 0 6 -19
22 -41 34 -75 42 -213 25 -239 -29 -54 -110 -65 -186 -35 -244 8 -15 15 -37
15 -47 0 -11 6 -19 13 -19 13 0 27 -36 43 -105 6 -27 7 -28 14 -10 6 15 9 8
14 -30 4 -27 10 -61 13 -75 14 -53 10 -97 -14 -158 -14 -35 -23 -66 -20 -69
10 -9 -62 -133 -77 -133 -4 0 -4 6 1 13 15 18 24 77 13 77 -6 0 -10 -7 -10
-15 0 -8 -4 -15 -10 -15 -15 0 -12 24 10 75 20 48 25 98 14 154 -10 48 -24 26
-24 -39 0 -62 -19 -131 -27 -97 -3 9 -8 17 -12 17 -9 0 -31 -45 -31 -64 0 -48
-118 -208 -175 -238 -11 -6 -1 9 23 34 23 24 42 48 42 53 0 5 -16 -10 -36 -33
-20 -23 -65 -63 -100 -88 -64 -46 -74 -59 -52 -66 18 -6 0 -28 -23 -28 -11 0
-41 -11 -68 -25 -27 -13 -51 -21 -55 -18 -3 3 -11 1 -18 -4 -17 -14 -128 -27
-128 -16 0 5 -35 6 -77 2 -75 -6 -101 -6 -223 5 -53 5 -54 5 -25 -9 l30 -14
-27 -1 c-45 0 -36 -30 10 -31 20 -1 48 -5 62 -9 40 -13 -55 -12 -125 1 -69 13
-291 116 -320 149 l-20 23 23 -7 c25 -8 29 5 7 24 -9 7 -13 15 -11 17 3 3 26
-11 52 -31 26 -20 50 -33 53 -30 3 3 -4 13 -17 21 -25 18 -29 33 -7 33 28 0
15 19 -45 65 -33 25 -60 51 -60 56 0 6 15 -1 33 -14 17 -14 79 -48 137 -77 58
-29 116 -61 129 -71 26 -21 41 -24 41 -9 0 5 -33 26 -72 46 -224 112 -359 257
-417 446 -28 95 -35 248 -15 346 16 81 80 206 154 307 75 101 243 244 274 232
10 -4 13 -1 10 7 -6 16 105 67 209 96 39 11 113 23 162 27 105 7 264 -12 272
-32 2 -8 12 -16 20 -19 13 -5 13 -4 4 7 -20 25 90 11 174 -22 42 -16 74 -24
72 -18 -2 6 -21 16 -42 24 -22 7 -49 22 -60 33 -12 11 -29 20 -38 20 -9 0 -17
4 -17 9 0 12 53 -3 125 -34 60 -27 96 -33 55 -10 -14 8 -69 33 -123 56 -53 23
-95 44 -93 47 8 7 149 -38 184 -60 33 -20 57 -22 44 -3 -16 24 -138 94 -173
100 -22 4 -39 11 -39 17 0 12 45 -2 230 -74 36 -14 81 -30 100 -36 41 -13 31
-4 -45 41 -25 15 -44 31 -41 36 3 5 -28 26 -69 47 -50 27 -69 41 -58 45 10 3
-7 14 -48 28 -35 13 -71 31 -81 41 -9 9 -38 20 -65 24 -26 4 -59 13 -73 21
-32 18 -28 18 63 1 41 -8 84 -12 94 -10 26 7 126 -27 242 -82 51 -24 97 -41
102 -38 5 3 33 -11 62 -31 l52 -36 -45 40 c-59 54 -233 171 -253 171 -9 0 -19
5 -22 10 -3 6 -15 10 -26 10 -11 0 -37 9 -59 20 -22 11 -48 20 -60 20 -11 0
-28 4 -38 9 -39 21 -105 28 -252 29 -85 0 -165 -2 -177 -5z m247 -87 c0 -8
-48 -12 -66 -5 -13 5 -7 8 24 8 23 1 42 -1 42 -3z m495 -86 c17 -11 40 -29 50
-40 14 -16 1 -11 -45 15 -36 20 -69 41 -74 46 -6 5 -17 9 -26 9 -9 0 -25 9
-36 21 -17 19 -14 19 40 -5 33 -15 73 -35 91 -46z m-621 -1888 c2 -4 -23 -8
-57 -8 -41 -1 -55 1 -42 6 26 11 92 12 99 2z"/>
<path d="M1310 2079 c-36 -5 -85 -15 -110 -24 -25 -8 -31 -12 -15 -9 94 18
148 24 218 24 50 0 76 4 72 10 -7 12 -72 11 -165 -1z"/>
<path d="M1740 2032 c0 -6 9 -12 20 -15 11 -3 20 -3 20 -1 0 2 -9 8 -20 14
-11 6 -20 7 -20 2z"/>
<path d="M1009 1984 c-36 -19 -81 -49 -100 -65 l-34 -30 38 27 c21 15 70 44
110 65 39 21 68 38 62 38 -5 0 -40 -15 -76 -35z"/>
<path d="M829 1893 c-13 -16 -12 -17 4 -4 9 7 17 15 17 17 0 8 -8 3 -21 -13z"/>
<path d="M790 1830 c0 -5 4 -10 9 -10 6 0 13 5 16 10 3 6 -1 10 -9 10 -9 0
-16 -4 -16 -10z"/>
<path d="M242 1170 c0 -14 2 -19 5 -12 2 6 2 18 0 25 -3 6 -5 1 -5 -13z"/>
<path d="M296 752 c-11 -18 20 -67 69 -108 25 -20 48 -35 50 -32 2 2 -12 25
-33 50 -20 25 -46 58 -58 74 -14 19 -23 24 -28 16z"/>
<path d="M360 745 c0 -14 47 -71 54 -64 3 3 -8 21 -24 40 -16 19 -29 30 -30
24z"/>
<path d="M326 647 c3 -10 9 -15 12 -12 3 3 0 11 -7 18 -10 9 -11 8 -5 -6z"/>
<path d="M498 619 c15 -17 19 -29 12 -32 -6 -3 -5 -4 2 -3 7 2 22 -1 33 -7 11
-5 16 -5 10 -1 -5 5 -26 23 -45 39 -31 27 -32 27 -12 4z"/>
<path d="M1020 592 c0 -5 33 -19 73 -30 121 -36 322 -28 397 15 24 13 23 14
-18 8 -23 -3 -61 -12 -84 -20 -50 -17 -168 -13 -254 8 -103 26 -114 28 -114
19z"/>
<path d="M476 557 c3 -10 9 -15 12 -12 3 3 0 11 -7 18 -10 9 -11 8 -5 -6z"/>
<path d="M915 289 c20 -13 64 -24 150 -39 28 -4 62 -11 78 -15 16 -4 27 -3 27
3 0 6 -24 13 -52 17 -47 6 -145 26 -203 41 -20 5 -20 5 0 -7z"/>
<path d="M1096 185 c4 -9 15 -15 28 -13 29 4 23 22 -9 26 -19 3 -24 0 -19 -13z"/>
<path d="M1470 160 c-11 -8 -7 -9 15 -4 37 8 45 14 19 14 -10 0 -26 -5 -34
-10z"/>
</g>
</svg>
